<svg width="152" height="192" viewBox="0 0 152 192" fill="none" xmlns="http://www.w3.org/2000/svg">
<path d="M29.1 44.5L42.3 0.999995H51V71H45.6V12.8H44.3L32.6 50.4H23.9L12.3 12.8H11.1V71H5.8V0.999995H14.5L27.5 44.5H29.1ZM90.7398 45.5L82.5398 7.49999H81.2398L72.9398 45.5H90.7398ZM71.3398 51.4L66.9398 70.9H61.5398L77.5398 0.899997H86.0398L102.04 70.9H96.7398L92.2398 51.4H71.3398ZM129.038 5.8C127.838 5.8 126.605 5.93333 125.338 6.2C124.072 6.46666 122.872 6.76666 121.738 7.09999C120.472 7.5 119.205 7.93333 117.938 8.4V36.5H129.038C133.838 36.5 137.705 35.0667 140.638 32.2C143.572 29.3333 145.038 25.2667 145.038 20C145.038 17.4 144.638 15.2 143.838 13.4C143.038 11.6 141.938 10.1333 140.538 9C139.138 7.86666 137.438 7.06666 135.438 6.59999C133.505 6.06666 131.372 5.8 129.038 5.8ZM139.238 40.5L151.638 71H146.038L133.638 42C132.438 42.2 131.138 42.3 129.738 42.3H117.838V71H112.538V3.9C114.338 3.23333 116.205 2.59999 118.138 1.99999C119.805 1.46666 121.638 0.999997 123.638 0.599994C125.705 0.199996 127.772 -3.8147e-06 129.838 -3.8147e-06C132.572 -3.8147e-06 135.205 0.466663 137.738 1.4C140.272 2.26666 142.505 3.56666 144.438 5.3C146.372 6.96666 147.905 9.03333 149.038 11.5C150.172 13.9667 150.738 16.8 150.738 20C150.738 22.2667 150.472 24.5 149.938 26.7C149.405 28.8333 148.638 30.8 147.638 32.6C146.638 34.4 145.405 36 143.938 37.4C142.538 38.7333 140.972 39.7667 139.238 40.5ZM35.5 122H41.1L24.9 192H16.4L0.7 122H6.2L20.1 185.4H21.4C22.1333 182.333 22.8667 179.033 23.6 175.5C24.2667 172.5 25 169.133 25.8 165.4C26.6667 161.6 27.5667 157.7 28.5 153.7C30.5667 144.433 32.9 133.867 35.5 122ZM79.7055 122V127.7H57.2055V153.9H74.8055V159.7H57.2055V186.1H79.9055V191.9H51.5055V122H79.7055ZM92.0305 122H97.7305V186.4H119.93V192H92.0305V122Z" fill="white"/>
</svg>
